<svg width="40" height="40" viewBox="0 0 40 40" fill="none" xmlns="http://www.w3.org/2000/svg">
<rect x="0.5" y="0.5" width="39" height="39" stroke="#898989"/>
<path d="M29.9687 14.885C30.1387 15.3446 29.6164 16.4168 28.4018 18.1018C28.2317 18.3315 28.0131 18.6379 27.7459 19.0208C27.1872 19.7357 26.8713 20.208 26.7985 20.4377C26.677 20.7441 26.7256 21.0377 26.9442 21.3185C27.0657 21.4717 27.3451 21.778 27.7823 22.2376H27.8188V22.2759C28.8148 23.2205 29.4828 24.0246 29.8229 24.6884L29.8958 24.8416L29.9687 25.1288V25.4926L29.7136 25.7798L29.0941 25.9138L26.4341 25.9904C26.264 26.016 26.0636 25.9904 25.8328 25.9138C25.602 25.8372 25.4259 25.7607 25.3045 25.6841L25.0858 25.5309C24.8672 25.3777 24.6243 25.1479 24.357 24.8416C24.0898 24.5352 23.853 24.2544 23.6465 23.9991C23.44 23.7438 23.2274 23.5332 23.0088 23.3673C22.7902 23.2013 22.5958 23.1439 22.4258 23.1949C22.4015 23.1949 22.3711 23.2077 22.3347 23.2332C22.2982 23.2588 22.2375 23.3162 22.1525 23.4055C22.0674 23.4949 21.9946 23.6034 21.9338 23.7311C21.8731 23.8587 21.8184 24.0438 21.7699 24.2863C21.7213 24.5289 21.697 24.8161 21.697 25.1479C21.697 25.2501 21.6848 25.3458 21.6605 25.4352C21.6362 25.5245 21.612 25.5947 21.5877 25.6458L21.5512 25.6841C21.4055 25.8372 21.2111 25.9138 20.9682 25.9138H19.8021C19.292 25.9649 18.7758 25.9138 18.2535 25.7607C17.7312 25.6075 17.2757 25.4096 16.887 25.1671C16.4983 24.9246 16.1461 24.682 15.8303 24.4395C15.5145 24.197 15.2715 23.9863 15.1015 23.8076L14.8464 23.5396C14.7735 23.4885 14.6764 23.3864 14.5549 23.2332C14.4334 23.08 14.1844 22.7482 13.8079 22.2376C13.4314 21.727 13.0609 21.1781 12.6965 20.5909C12.3321 20.0037 11.907 19.2315 11.4211 18.2741C10.9353 17.3167 10.4859 16.3275 10.0729 15.3063C10.0243 15.1786 10 15.0765 10 14.9999C10 14.9233 10.0121 14.8595 10.0364 14.8084L10.0729 14.7701C10.17 14.617 10.3644 14.5404 10.6559 14.5404H13.5346C13.6075 14.5404 13.6804 14.5595 13.7532 14.5978L13.9354 14.6936L13.9719 14.7318C14.0933 14.8084 14.1784 14.9233 14.2269 15.0765C14.3727 15.4339 14.5367 15.8105 14.7189 16.2062C14.9011 16.6019 15.0408 16.9019 15.1379 17.1061L15.2837 17.4125C15.5023 17.8465 15.7027 18.223 15.8849 18.5422C16.0671 18.8613 16.2311 19.1102 16.3769 19.2889C16.5226 19.4676 16.6684 19.608 16.8141 19.7101C16.9599 19.8123 17.0813 19.8633 17.1785 19.8633C17.2757 19.8633 17.3729 19.8505 17.47 19.825L17.5065 19.7676L17.634 19.5187L17.7798 19.0208L17.8709 18.1401V16.7615C17.8466 16.4806 17.8101 16.219 17.7615 15.9764C17.713 15.7339 17.6644 15.5616 17.6158 15.4594L17.5794 15.3446C17.4093 15.0893 17.1056 14.9233 16.6684 14.8467C16.5955 14.8467 16.6198 14.7574 16.7413 14.5787C16.8627 14.451 16.9963 14.3489 17.1421 14.2723C17.5065 14.0681 18.3324 13.9787 19.6199 14.0043C20.1787 14.0043 20.6524 14.0553 21.0411 14.1574C21.1625 14.183 21.2719 14.2276 21.369 14.2915C21.4662 14.3553 21.5391 14.4446 21.5877 14.5595C21.6362 14.6744 21.6727 14.7893 21.697 14.9042C21.7213 15.0191 21.7334 15.185 21.7334 15.402V15.9956C21.7091 16.1998 21.697 16.4551 21.697 16.7615V17.6805C21.697 17.7571 21.6909 17.9103 21.6788 18.1401C21.6666 18.3698 21.6605 18.5485 21.6605 18.6762C21.6605 18.8038 21.6727 18.9506 21.697 19.1166C21.7213 19.2825 21.7638 19.4229 21.8245 19.5378C21.8853 19.6527 21.9642 19.7357 22.0614 19.7867C22.11 19.8123 22.1646 19.8314 22.2253 19.8442C22.2861 19.8569 22.3772 19.8186 22.4986 19.7293C22.6201 19.6399 22.7537 19.5123 22.8995 19.3463C23.0452 19.1804 23.2274 18.9315 23.4461 18.5996C23.6647 18.2677 23.8955 17.8848 24.1384 17.4508C24.5514 16.6849 24.9279 15.8552 25.268 14.9616C25.2923 14.9106 25.3227 14.8531 25.3591 14.7893C25.3956 14.7255 25.4381 14.6808 25.4867 14.6553H25.5231L25.5595 14.617L25.7053 14.5787H25.9239L28.9119 14.5404C29.1792 14.5148 29.4039 14.5276 29.5861 14.5787C29.7683 14.6297 29.8715 14.6936 29.8958 14.7701L29.9687 14.885Z" fill="white"/>
</svg>
