<svg width="40" height="40" viewBox="0 0 40 40" fill="none" xmlns="http://www.w3.org/2000/svg">
<rect x="0.5" y="0.5" width="39" height="39" stroke="#898989"/>
<g clip-path="url(#clip0_35916_29)">
<path d="M29.5834 15.4224C29.4701 15.0184 29.2495 14.6527 28.945 14.3641C28.6319 14.0666 28.2482 13.8538 27.83 13.7457C26.265 13.3332 19.995 13.3332 19.995 13.3332C17.3811 13.3035 14.7679 13.4343 12.17 13.7249C11.7519 13.8409 11.3688 14.0585 11.055 14.3582C10.7467 14.6549 10.5234 15.0207 10.4067 15.4216C10.1264 16.9314 9.99027 18.4644 10 19.9999C9.99003 21.5341 10.1259 23.0666 10.4067 24.5782C10.5209 24.9774 10.7434 25.3416 11.0525 25.6357C11.3617 25.9299 11.7467 26.1424 12.17 26.2549C13.7559 26.6666 19.995 26.6666 19.995 26.6666C22.6122 26.6963 25.2288 26.5655 27.83 26.2749C28.2482 26.1669 28.6319 25.9541 28.945 25.6566C29.2534 25.3624 29.4725 24.9966 29.5825 24.5982C29.8701 23.089 30.0099 21.5554 30 20.0191C30.0217 18.4762 29.882 16.9354 29.5834 15.4216V15.4224ZM18.0017 22.8532V17.1474L23.2184 20.0007L18.0017 22.8532Z" fill="white"/>
</g>
<defs>
<clipPath id="clip0_35916_29">
<rect width="20" height="20" fill="white" transform="translate(10 10)"/>
</clipPath>
</defs>
</svg>
